<svg width="50" height="50" viewBox="0 0 50 50" fill="none" xmlns="http://www.w3.org/2000/svg">
<path d="M39.0625 10.9375H10.9375C9.21161 10.9375 7.8125 12.3366 7.8125 14.0625V26.5625C7.8125 28.2884 9.21161 29.6875 10.9375 29.6875H39.0625C40.7884 29.6875 42.1875 28.2884 42.1875 26.5625V14.0625C42.1875 12.3366 40.7884 10.9375 39.0625 10.9375Z" stroke="white" stroke-width="2" stroke-linecap="round" stroke-linejoin="round"/>
<path d="M39.0625 29.6875H10.9375C9.21161 29.6875 7.8125 31.0866 7.8125 32.8125V39.0625C7.8125 40.7884 9.21161 42.1875 10.9375 42.1875H39.0625C40.7884 42.1875 42.1875 40.7884 42.1875 39.0625V32.8125C42.1875 31.0866 40.7884 29.6875 39.0625 29.6875Z" stroke="white" stroke-width="2" stroke-linecap="round" stroke-linejoin="round"/>
<path d="M39.0625 10.9375H10.9375C10.1094 10.9352 9.3159 10.6052 8.73035 10.0196C8.1448 9.4341 7.81482 8.64059 7.8125 7.8125C7.81482 6.98441 8.1448 6.1909 8.73035 5.60535C9.3159 5.0198 10.1094 4.68982 10.9375 4.6875H39.0625C39.8906 4.68982 40.6841 5.0198 41.2696 5.60535C41.8552 6.1909 42.1852 6.98441 42.1875 7.8125C42.1852 8.64059 41.8552 9.4341 41.2696 10.0196C40.6841 10.6052 39.8906 10.9352 39.0625 10.9375ZM14.0625 42.1875V44.3359C14.0625 44.5949 13.9596 44.8433 13.7765 45.0265C13.5933 45.2096 13.3449 45.3125 13.0859 45.3125H10.3516C10.0926 45.3125 9.84417 45.2096 9.66103 45.0265C9.47789 44.8433 9.375 44.5949 9.375 44.3359V42.1875H14.0625ZM40.625 42.1875V44.3359C40.625 44.5949 40.5221 44.8433 40.339 45.0265C40.1558 45.2096 39.9074 45.3125 39.6484 45.3125H36.9141C36.6551 45.3125 36.4067 45.2096 36.2235 45.0265C36.0404 44.8433 35.9375 44.5949 35.9375 44.3359V42.1875H40.625Z" stroke="white" stroke-width="2" stroke-linecap="round" stroke-linejoin="round"/>
<path d="M35.9375 37.5C36.8004 37.5 37.5 36.8004 37.5 35.9375C37.5 35.0746 36.8004 34.375 35.9375 34.375C35.0746 34.375 34.375 35.0746 34.375 35.9375C34.375 36.8004 35.0746 37.5 35.9375 37.5Z" stroke="white" stroke-width="2" stroke-linejoin="round"/>
<path d="M14.0625 37.5C14.9254 37.5 15.625 36.8004 15.625 35.9375C15.625 35.0746 14.9254 34.375 14.0625 34.375C13.1996 34.375 12.5 35.0746 12.5 35.9375C12.5 36.8004 13.1996 37.5 14.0625 37.5Z" stroke="white" stroke-width="2" stroke-linejoin="round"/>
<path d="M25 10.9375V29.6875M7.8125 7.8125V35.9375M42.1875 7.8125V35.9375" stroke="white" stroke-width="2" stroke-linecap="round" stroke-linejoin="round"/>
</svg>
