<svg width="62" height="62" viewBox="0 0 62 62" fill="none" xmlns="http://www.w3.org/2000/svg">
<path d="M12.9166 39.0497V15.5C12.9166 13.8139 13.4014 12.4586 14.371 11.4338C15.3407 10.4091 16.653 9.62378 18.308 9.07783C19.9631 8.53189 21.8877 8.17539 24.0818 8.00833C26.2759 7.84128 28.582 7.75517 31 7.75C33.511 7.75 35.8601 7.83525 38.0473 8.00575C40.2345 8.17625 42.1488 8.53447 43.79 9.08042C45.4313 9.62636 46.7239 10.4108 47.6676 11.4338C48.6114 12.4568 49.0833 13.8122 49.0833 15.5V39.0497C49.0833 41.1249 48.36 42.8859 46.9133 44.3326C45.4683 45.7775 43.7082 46.5 41.633 46.5L45.508 50.375V51.6667H43.3199L38.1532 46.5H23.8467L18.68 51.6667H16.4945V50.375L20.3695 46.5C18.2925 46.5 16.5316 45.7767 15.0866 44.33C13.64 42.8868 12.9166 41.1267 12.9166 39.0497ZM31 10.3333C25.9383 10.3333 22.2537 10.6692 19.9459 11.3408C17.6381 12.0108 16.2457 13.0002 15.7686 14.3091H46.2907C45.8429 12.9795 44.4626 11.9849 42.1496 11.3253C39.8367 10.664 36.1201 10.3333 31 10.3333ZM15.5 28.4167H29.7083V16.8924H15.5V28.4167ZM41.633 31H15.5H46.5H41.633ZM32.2916 28.4167H46.5V16.8924H32.2916V28.4167ZM21.9583 40.3413C22.7798 40.3413 23.4652 40.0658 24.0146 39.5147C24.564 38.9636 24.8396 38.2781 24.8413 37.4583C24.843 36.6386 24.5675 35.9531 24.0146 35.402C23.4618 34.8509 22.7763 34.5753 21.9583 34.5753C21.1402 34.5753 20.4548 34.8509 19.902 35.402C19.3491 35.9531 19.0736 36.6386 19.0753 37.4583C19.077 38.2781 19.3526 38.9636 19.902 39.5147C20.4513 40.0658 21.1368 40.3413 21.9583 40.3413ZM40.0416 40.3413C40.8631 40.3413 41.5486 40.0658 42.098 39.5147C42.6473 38.9636 42.9229 38.2781 42.9246 37.4583C42.9263 36.6386 42.6508 35.9531 42.098 35.402C41.5451 34.8509 40.8597 34.5753 40.0416 34.5753C39.2236 34.5753 38.5381 34.8509 37.9853 35.402C37.4325 35.9531 37.1569 36.6386 37.1586 37.4583C37.1603 38.2781 37.4359 38.9636 37.9853 39.5147C38.5347 40.0658 39.2201 40.3413 40.0416 40.3413ZM20.3695 43.9167H41.6304C42.9823 43.9167 44.1319 43.4431 45.0791 42.4958C46.0264 41.5486 46.5 40.399 46.5 39.0471V31H15.5V39.0497C15.5 40.3999 15.9736 41.5486 16.9208 42.4958C17.868 43.4431 19.0176 43.9167 20.3695 43.9167ZM31 14.3091H46.2907H15.7686H31Z" fill="white"/>
</svg>
